<?xml version="1.0" encoding="UTF-8"?><!DOCTYPE svg PUBLIC "-//W3C//DTD SVG 1.1//EN" "http://www.w3.org/Graphics/SVG/1.1/DTD/svg11.dtd"><svg xmlns="http://www.w3.org/2000/svg" xmlns:xlink="http://www.w3.org/1999/xlink"><symbol id="arrow-big" viewBox="0 0 27 12">
<path d="M26.5303 6.53033C26.8232 6.23744 26.8232 5.76257 26.5303 5.46967L21.7574 0.696701C21.4645 0.403808 20.9896 0.403808 20.6967 0.696701C20.4038 0.989594 20.4038 1.46447 20.6967 1.75736L24.9393 6L20.6967 10.2426C20.4038 10.5355 20.4038 11.0104 20.6967 11.3033C20.9896 11.5962 21.4645 11.5962 21.7574 11.3033L26.5303 6.53033ZM-6.55671e-08 6.75L26 6.75L26 5.25L6.55671e-08 5.25L-6.55671e-08 6.75Z"/>
</symbol><symbol id="arrow-sitys" viewBox="0 0 9 6">
<path d="M1 0.712158L4.23753 3.94969L7.47507 0.712158" stroke="#303030" stroke-width="2"/>
</symbol><symbol id="arrow-small" viewBox="0 0 10 16">
<path d="M1.07102 0.999977L8.14209 8.07104L1.07102 15.1421" stroke="#303030" stroke-width="2"/>
</symbol><symbol id="arrow" viewBox="0 0 27 12">
<path d="M26.5303 6.53033C26.8232 6.23744 26.8232 5.76257 26.5303 5.46967L21.7574 0.696701C21.4645 0.403808 20.9896 0.403808 20.6967 0.696701C20.4038 0.989594 20.4038 1.46447 20.6967 1.75736L24.9393 6L20.6967 10.2426C20.4038 10.5355 20.4038 11.0104 20.6967 11.3033C20.9896 11.5962 21.4645 11.5962 21.7574 11.3033L26.5303 6.53033ZM-6.55671e-08 6.75L26 6.75L26 5.25L6.55671e-08 5.25L-6.55671e-08 6.75Z" fill="black"/>
</symbol><symbol id="bag" viewBox="0 0 16 17">
<rect y="4" width="16" height="13" rx="1" fill="white"/>
<mask id="path-2-inside-1_203_18" fill="white">
<rect y="4" width="16" height="13" rx="1"/>
</mask>
<rect y="4" width="16" height="13" rx="1" stroke-width="3.2" mask="url(#path-2-inside-1_203_18)"/>
<path d="M4 8L4 5C4 2.79086 5.79086 1 8 1V1C10.2091 1 12 2.79086 12 5L12 8" stroke-width="1.6"/>
</symbol><symbol id="chart" viewBox="0 0 13 15">
<line x1="1.1" y1="8" x2="1.1" y2="15" stroke-width="2.2"/>
<line x1="6.1" y1="-4.80825e-08" x2="6.1" y2="15" stroke-width="2.2"/>
<line x1="11.1" y1="3" x2="11.1" y2="15" stroke-width="2.2"/>
</symbol><symbol id="checkbox" viewBox="0 0 16 16">
<path d="M6.29998 11.9L2.56665 8.16667L3.28332 7.45L6.29998 10.4667L12.7 4.06667L13.4167 4.78333L6.29998 11.9Z" fill="black"/>
</symbol><symbol id="close" viewBox="0 0 16 16">
  <path d="m8.94 8 2.867-2.86a.67.67 0 1 0-.947-.947L8 7.06 5.14 4.193a.67.67 0 0 0-.947.947L7.06 8l-2.867 2.86a.667.667 0 0 0 .217 1.092.668.668 0 0 0 .73-.146L8 8.94l2.86 2.867a.667.667 0 0 0 1.093-.218.667.667 0 0 0-.146-.73L8.94 8Z" fill="currentColor"/>
</symbol><symbol id="eyes" viewBox="0 0 20 20">
<path fill-rule="evenodd" clip-rule="evenodd" d="M11.0044 1.5C11.0044 0.947715 10.5567 0.5 10.0044 0.5C9.45211 0.5 9.00439 0.947715 9.00439 1.5V3.54989C8.04476 3.64609 7.12848 3.87731 6.27405 4.20772L5.4446 3.05037C5.12289 2.60146 4.49817 2.49836 4.04927 2.82007C3.60036 3.14179 3.49726 3.76651 3.81898 4.21541L4.45792 5.10695C3.92702 5.43178 3.434 5.79271 2.98539 6.17708C1.24791 7.6658 0 9.66836 0 11.5C0 13.3316 1.24791 15.3342 2.98539 16.8229C4.76222 18.3453 7.23586 19.5 10 19.5C12.7639 19.5 15.2376 18.3462 17.0145 16.8241C18.7522 15.3355 20 13.333 20 11.5C20 9.66702 18.7522 7.66444 17.0145 6.17591C16.6848 5.89346 16.331 5.62368 15.9559 5.37161L16.6253 4.43759C16.947 3.98869 16.844 3.36398 16.3951 3.04225C15.9462 2.72053 15.3214 2.82362 14.9997 3.27252L14.1918 4.39975C13.2102 3.96793 12.1376 3.66528 11.0044 3.55075V1.5ZM10 7.5C7.79086 7.5 6 9.29086 6 11.5C6 13.7091 7.79086 15.5 10 15.5C12.2091 15.5 14 13.7091 14 11.5C14 9.29086 12.2091 7.5 10 7.5Z"/>
</symbol><symbol id="favorite" viewBox="0 0 18 16">
<path d="M8.99998 15.5C8.46248 15.0233 7.85498 14.5275 7.21248 14H7.20415C4.94165 12.15 2.37748 10.0566 1.24498 7.54829C0.87291 6.74973 0.675732 5.8809 0.666635 4.99996C0.664151 3.7912 1.14895 2.63245 2.01149 1.7856C2.87402 0.938751 4.04147 0.475289 5.24998 0.49996C6.23384 0.501514 7.19651 0.785861 8.02331 1.31913C8.38662 1.55493 8.71533 1.84017 8.99998 2.16663C9.28622 1.84145 9.61502 1.55638 9.97748 1.31913C10.8039 0.785756 11.7664 0.501392 12.75 0.49996C13.9585 0.475289 15.1259 0.938751 15.9885 1.7856C16.851 2.63245 17.3358 3.7912 17.3333 4.99996C17.3248 5.88231 17.1276 6.75262 16.755 7.55246C15.6225 10.0608 13.0591 12.1533 10.7966 14L10.7883 14.0066C10.145 14.5308 9.53831 15.0266 9.00081 15.5066L8.99998 15.5ZM5.24998 2.16663C4.47374 2.15691 3.72504 2.454 3.16665 2.99329C2.62863 3.52176 2.32794 4.24583 2.33324 4.99996C2.34275 5.64204 2.48817 6.27484 2.75998 6.85663C3.29457 7.93888 4.0159 8.91834 4.89081 9.74996C5.71665 10.5833 6.66665 11.39 7.48831 12.0683C7.71581 12.2558 7.94748 12.445 8.17915 12.6341L8.32498 12.7533C8.54748 12.935 8.77748 13.1233 8.99998 13.3083L9.01081 13.2983L9.01581 13.2941H9.02081L9.02831 13.2883H9.03248H9.03664L9.05165 13.2758L9.08581 13.2483L9.09165 13.2433L9.10081 13.2366H9.10581L9.11331 13.23L9.66665 12.7758L9.81165 12.6566C10.0458 12.4658 10.2775 12.2766 10.505 12.0891C11.3266 11.4108 12.2775 10.605 13.1033 9.76746C13.9783 8.93626 14.6997 7.95705 15.2341 6.87496C15.5109 6.28813 15.6584 5.64871 15.6667 4.99996C15.6701 4.24816 15.3696 3.52687 14.8333 2.99996C14.276 2.45823 13.5272 2.1587 12.75 2.16663C11.8016 2.15857 10.8949 2.5561 10.2583 3.25913L8.99998 4.70913L7.74165 3.25913C7.10503 2.5561 6.19838 2.15857 5.24998 2.16663Z"/>
</symbol><symbol id="icon-burger" viewBox="0 0 24 24">
  <path d="M3 8h18a1 1 0 1 0 0-2H3a1 1 0 0 0 0 2Zm18 8H3a1 1 0 0 0 0 2h18a1 1 0 0 0 0-2Zm0-5H3a1 1 0 0 0 0 2h18a1 1 0 0 0 0-2Z" fill="currentcolor"/>
</symbol><symbol id="like" viewBox="0 0 20 18">
<path d="M7.94668e-08 5.40001C-0.000248434 3.95035 0.582385 2.56146 1.61681 1.54584C2.65124 0.53022 4.05058 -0.026834 5.5 1.1704e-05C7.21732 -0.0091083 8.85599 0.719186 10 2.00001C11.144 0.719186 12.7827 -0.0091083 14.5 1.1704e-05C15.9494 -0.026834 17.3488 0.53022 18.3832 1.54584C19.4176 2.56146 20.0002 3.95035 20 5.40001C20 10.756 13.621 14.8 10 18C6.387 14.773 7.94668e-08 10.76 7.94668e-08 5.40001Z"/>
</symbol><symbol id="phone" viewBox="0 0 16 16">
<path d="M15.5645 11.7424L13.3317 9.50954C12.5342 8.71209 11.1786 9.0311 10.8596 10.0678C10.6203 10.7855 9.8229 11.1842 9.1052 11.0247C7.51031 10.626 5.3572 8.5526 4.95848 6.87797C4.71925 6.16024 5.19771 5.36279 5.91542 5.12359C6.9521 4.80461 7.27107 3.44895 6.47363 2.65151L4.24078 0.418659C3.60282 -0.139553 2.64589 -0.139553 2.08768 0.418659L0.57253 1.93381C-0.942617 3.5287 0.732019 7.75516 4.48001 11.5032C8.22801 15.2511 12.4545 17.0056 14.0494 15.4106L15.5645 13.8955C16.1228 13.2575 16.1228 12.3006 15.5645 11.7424Z"/>
</symbol><symbol id="pointer" viewBox="0 0 12 16">
<path d="M5.99998 0C2.80482 0 0.205383 2.59944 0.205383 5.79456C0.205383 9.75981 5.39098 15.581 5.61176 15.8269C5.81913 16.0579 6.1812 16.0575 6.3882 15.8269C6.60898 15.581 11.7946 9.75981 11.7946 5.79456C11.7945 2.59944 9.1951 0 5.99998 0ZM5.99998 8.70997C4.39241 8.70997 3.0846 7.40213 3.0846 5.79456C3.0846 4.187 4.39245 2.87919 5.99998 2.87919C7.60751 2.87919 8.91532 4.18703 8.91532 5.79459C8.91532 7.40216 7.60751 8.70997 5.99998 8.70997Z"/>
</symbol><symbol id="question" viewBox="0 0 6 10">
<path d="M2.25 6.49006H3.46875V6.40909C3.4858 5.42898 3.76705 4.99006 4.49148 4.54261C5.25426 4.08239 5.72301 3.43466 5.72301 2.47585C5.72301 1.09091 4.67472 0.153409 3.1108 0.153409C1.67472 0.153409 0.524148 0.992897 0.46875 2.52699H1.7642C1.81534 1.62358 2.45881 1.22727 3.1108 1.22727C3.83523 1.22727 4.4233 1.70881 4.4233 2.46307C4.4233 3.09801 4.02699 3.54545 3.51989 3.8608C2.72727 4.34659 2.25852 4.82812 2.25 6.40909V6.49006ZM2.89347 9.08097C3.35795 9.08097 3.74574 8.7017 3.74574 8.22869C3.74574 7.7642 3.35795 7.38068 2.89347 7.38068C2.42472 7.38068 2.04119 7.7642 2.04119 8.22869C2.04119 8.7017 2.42472 9.08097 2.89347 9.08097Z" fill="#303030"/>
</symbol><symbol id="search" viewBox="0 0 16 16">
<path fill-rule="evenodd" clip-rule="evenodd" d="M11.2 6.5C11.2 9.09574 9.09574 11.2 6.5 11.2C3.90426 11.2 1.8 9.09574 1.8 6.5C1.8 3.90426 3.90426 1.8 6.5 1.8C9.09574 1.8 11.2 3.90426 11.2 6.5ZM10.062 11.938C9.03902 12.6094 7.81512 13 6.5 13C2.91015 13 0 10.0899 0 6.5C0 2.91015 2.91015 0 6.5 0C10.0899 0 13 2.91015 13 6.5C13 8.1561 12.3806 9.66755 11.3609 10.8153L15.2728 14.7272L14 16L10 12L10.062 11.938Z"/>
</symbol><symbol id="share" viewBox="0 0 16 18">
<path fill-rule="evenodd" clip-rule="evenodd" d="M9.66667 3.58329C9.66667 1.97246 10.9725 0.666626 12.5833 0.666626C14.1942 0.666626 15.5 1.97246 15.5 3.58329C15.5 5.19411 14.1942 6.49996 12.5833 6.49996C11.769 6.49996 11.0327 6.16626 10.5036 5.62816L6.22756 8.21884C6.29649 8.46745 6.33333 8.7294 6.33333 8.99996C6.33333 9.24301 6.3036 9.47912 6.24758 9.70485L10.6009 12.2773C11.1212 11.7949 11.8178 11.5 12.5833 11.5C14.1942 11.5 15.5 12.8058 15.5 14.4166C15.5 16.0274 14.1942 17.3333 12.5833 17.3333C10.9725 17.3333 9.66667 16.0274 9.66667 14.4166C9.66667 14.1736 9.69639 13.9375 9.7524 13.7118L5.39908 11.1394C4.87875 11.6217 4.18214 11.9166 3.41667 11.9166C1.80585 11.9166 0.5 10.6108 0.5 8.99996C0.5 7.38914 1.80585 6.08329 3.41667 6.08329C4.15373 6.08329 4.82695 6.3567 5.34042 6.80763L9.72225 4.15284C9.68578 3.96864 9.66667 3.7782 9.66667 3.58329ZM12.5833 2.33329C11.893 2.33329 11.3333 2.89294 11.3333 3.58329C11.3333 4.27364 11.893 4.83329 12.5833 4.83329C13.2737 4.83329 13.8333 4.27364 13.8333 3.58329C13.8333 2.89294 13.2737 2.33329 12.5833 2.33329ZM3.41667 7.74996C2.72632 7.74996 2.16667 8.30961 2.16667 8.99996C2.16667 9.69031 2.72632 10.25 3.41667 10.25C4.10701 10.25 4.66667 9.69031 4.66667 8.99996C4.66667 8.30961 4.10701 7.74996 3.41667 7.74996ZM12.5833 13.1666C11.893 13.1666 11.3333 13.7263 11.3333 14.4166C11.3333 15.107 11.893 15.6666 12.5833 15.6666C13.2737 15.6666 13.8333 15.107 13.8333 14.4166C13.8333 13.7263 13.2737 13.1666 12.5833 13.1666Z"/>
</symbol><symbol id="star-check" viewBox="0 0 17 16">
<path d="M8.5 0L10.7982 5.33674L16.584 5.87336L12.2186 9.70826L13.4962 15.3766L8.5 12.41L3.50383 15.3766L4.78137 9.70826L0.416019 5.87336L6.20176 5.33674L8.5 0Z"/>
</symbol><symbol id="star-uncheck" viewBox="0 0 17 16">
<path d="M8.5 1.26413L10.339 5.53451L10.4564 5.80719L10.7521 5.83461L15.3817 6.26399L11.8886 9.33262L11.6656 9.52856L11.7309 9.81819L12.7531 14.3539L8.75528 11.9801L8.5 11.8285L8.24472 11.9801L4.24687 14.3539L5.26913 9.81819L5.33441 9.52856L5.11136 9.33262L1.61828 6.264L6.24794 5.83461L6.54356 5.80719L6.66099 5.53451L8.5 1.26413Z"/>
</symbol></svg>